<svg width="1280" height="36" viewBox="0 0 1280 36" fill="none" xmlns="http://www.w3.org/2000/svg">
<g clip-path="url(#clip0)">
<path fill-rule="evenodd" clip-rule="evenodd" d="M-338.012 -0.333252C-342.122 -0.333252 -346.133 0.933141 -349.498 3.2936L-355.093 7.21901C-371.093 18.4428 -363.152 43.5921 -343.608 43.5921L-106.673 43.5921C-95.6269 43.5921 -86.6726 52.5465 -86.6726 63.5922V484.55C-86.6726 495.595 -77.7182 504.55 -66.6725 504.55H1286.86C1297.9 504.55 1306.86 495.595 1306.86 484.55V45.0909C1306.86 34.0452 1297.9 25.0909 1286.86 25.0909H1027.85C1024.89 25.0909 1021.97 24.4346 1019.3 23.1691L995.037 11.6903C992.363 10.4249 989.441 9.76851 986.483 9.76851L563.281 9.76851C559.17 9.76851 555.16 11.0349 551.795 13.3953L540.293 21.4641C536.928 23.8245 532.917 25.0909 528.807 25.0909H277.527C274.568 25.0909 271.647 24.4346 268.972 23.1691L223.366 1.58855C220.692 0.323122 217.77 -0.333246 214.811 -0.333246L-338.012 -0.333252Z" fill="black"/>
</g>
<defs>
<clipPath id="clip0">
<rect width="1280" height="36" fill="white"/>
</clipPath>
</defs>
</svg>
