<svg width="1280" height="13" viewBox="0 0 1280 13" fill="none" xmlns="http://www.w3.org/2000/svg">
<g clip-path="url(#clip0)">
<path fill-rule="evenodd" clip-rule="evenodd" d="M327.299 8.03917C325.961 8.67188 324.501 9.00006 323.021 9.00006H-69.4141C-74.9369 9.00006 -79.4141 13.4772 -79.4141 19.0001V158C-79.4141 163.523 -74.9369 168 -69.4141 168H1349.41C1354.94 168 1359.41 163.523 1359.41 158V19.0001C1359.41 13.4772 1354.94 9.00006 1349.41 9.00006H923.911C921.855 9.00006 919.85 8.36686 918.168 7.18664L910.507 1.81251C908.824 0.632283 906.819 -0.000915527 904.764 -0.000915527H346.536C345.057 -0.000915527 343.596 0.327268 342.259 0.959981L327.299 8.03917Z" fill="white"/>
</g>
<defs>
<clipPath id="clip0">
<rect width="1280" height="13" fill="white"/>
</clipPath>
</defs>
</svg>
